<!-- Generator: Adobe Illustrator 19.1.0, SVG Export Plug-In  -->
<svg version="1.1"
	 xmlns="http://www.w3.org/2000/svg" xmlns:xlink="http://www.w3.org/1999/xlink" xmlns:a="http://ns.adobe.com/AdobeSVGViewerExtensions/3.0/"
	 x="0px" y="0px" width="334.483px" height="277.482px" viewBox="0 0 334.483 277.482"
	 style="enable-background:new 0 0 334.483 277.482;" xml:space="preserve">
<style type="text/css">
	.st0{fill:#050606;}
</style>
<defs>
</defs>
<path class="st0" d="M329.854,249.082c0.517-1.08,1.002-2.185,1.435-3.294c0.331-0.843-0.044-1.79-0.835-2.192
	c0.871,0.181,1.749-0.331,2.012-1.202c0.348-1.136,0.652-2.304,0.912-3.47c0.195-0.877-0.314-1.747-1.148-2.028
	c0.881,0.034,1.66-0.608,1.789-1.499c0.166-1.176,0.287-2.376,0.365-3.566c0.058-0.901-0.576-1.684-1.443-1.832
	c0.877-0.101,1.553-0.848,1.543-1.751c-0.014-1.191-0.072-2.395-0.172-3.582c-0.082-0.9-0.826-1.58-1.707-1.596
	c0.852-0.229,1.406-1.073,1.259-1.963c-0.19-1.178-0.434-2.356-0.716-3.513c-0.214-0.878-1.055-1.438-1.929-1.315
	c0.808-0.359,1.227-1.278,0.942-2.139c-0.369-1.129-0.789-2.262-1.248-3.362c-0.346-0.829-1.254-1.249-2.094-1.002
	c0.731-0.481,1.004-1.45,0.594-2.251c-0.541-1.061-1.131-2.113-1.748-3.129c-0.468-0.771-1.438-1.047-2.234-0.671
	c0.656-0.589,0.777-1.586,0.25-2.316c-0.691-0.965-1.431-1.918-2.202-2.828c-0.581-0.689-1.585-0.818-2.314-0.321
	c0.564-0.683,0.531-1.689-0.1-2.331c-0.836-0.852-1.713-1.677-2.61-2.463c-0.679-0.596-1.69-0.566-2.336,0.038
	c0.454-0.761,0.27-1.755-0.453-2.292c-0.95-0.715-1.947-1.399-2.952-2.038c-0.766-0.486-1.76-0.304-2.306,0.394
	c0.337-0.821,0.005-1.775-0.796-2.203c-1.052-0.56-2.139-1.084-3.23-1.559c-0.833-0.367-1.789-0.029-2.221,0.746
	c0.206-0.863-0.268-1.76-1.123-2.059c-1.127-0.39-2.279-0.742-3.43-1.046c-0.877-0.231-1.768,0.245-2.078,1.069
	c0.068-0.881-0.539-1.686-1.428-1.848c-1.169-0.216-2.364-0.387-3.545-0.51c-0.899-0.097-1.709,0.507-1.891,1.371
	c-0.07-0.882-0.789-1.58-1.69-1.607c-1.192-0.033-2.396-0.023-3.585,0.035c-0.9,0.043-1.609,0.763-1.654,1.642
	c-0.201-0.861-1.022-1.447-1.918-1.339c-1.185,0.149-2.373,0.346-3.537,0.578c-0.887,0.178-1.478,0.997-1.392,1.875
	c-0.296-0.738-1.054-1.178-1.839-1.076l-2.921-6.516c-0.742-1.656-2.053-2.869-3.595-3.539l-2.156-4.812
	c0.354-0.146,0.701-0.295,1.051-0.435c0.691-0.314,1.42-0.51,2.133-0.747l2.151-0.702c1.444-0.418,2.914-0.721,4.363-1.1
	c1.478-0.245,2.938-0.493,4.385-0.739c1.467-0.129,2.917-0.262,4.343-0.388l0.066-0.008c0.051-0.003-0.337-0.005-0.154-0.003
	l0.036-0.002l0.149-0.002l0.291-0.002l0.585-0.007c0.389-0.006,0.774-0.011,1.162-0.019c0.763-0.007,1.556-0.029,2.268-0.022
	c1.316,0.085,2.596,0.124,3.876,0.218c1.306,0.165,2.587,0.301,3.82,0.471c1.229,0.232,2.411,0.457,3.546,0.669
	c1.121,0.289,2.2,0.567,3.221,0.833c0.52,0.114,1.006,0.282,1.483,0.443c0.474,0.158,0.937,0.314,1.386,0.462
	c0.448,0.146,0.885,0.294,1.303,0.429c0.418,0.15,0.805,0.325,1.186,0.48c0.763,0.305,1.457,0.591,2.091,0.846
	c1.25,0.542,2.195,1.053,2.859,1.358c0.662,0.32,1.012,0.489,1.012,0.489l0.287,0.141c1.957,0.941,4.347,0.237,5.472-1.671
	c1.185-2.014,0.515-4.609-1.498-5.792c0,0-0.386-0.229-1.105-0.653c-0.729-0.41-1.767-1.074-3.15-1.809
	c-0.7-0.354-1.481-0.739-2.322-1.167c-0.425-0.208-0.862-0.44-1.327-0.651c-0.47-0.199-0.959-0.409-1.459-0.62
	c-0.508-0.213-1.027-0.432-1.564-0.659c-0.533-0.23-1.088-0.467-1.671-0.653c-1.164-0.399-2.388-0.83-3.678-1.258
	c-1.306-0.354-2.667-0.728-4.076-1.109c-1.428-0.316-2.913-0.599-4.44-0.905c-1.574-0.248-3.248-0.436-4.935-0.652
	c-0.79-0.071-1.525-0.104-2.305-0.157c-0.383-0.025-0.77-0.051-1.16-0.077l-0.578-0.037l-0.296-0.019l-0.147-0.01h-0.038
	l-0.229-0.004h-0.08c-1.707,0.017-3.443,0.037-5.201,0.06c-1.752,0.149-3.537,0.279-5.33,0.469
	c-1.775,0.298-3.585,0.538-5.379,0.909c-0.889,0.213-1.783,0.423-2.676,0.636c-0.893,0.221-1.797,0.412-2.67,0.713
	c-0.773,0.231-1.545,0.481-2.311,0.737l-1.893-4.219l5.09-1.966c0.67-0.26,1.006-1.013,0.748-1.686l-7.871-20.373
	c-0.26-0.672-1.012-1.006-1.682-0.747l-3.299,1.276l-1.186-2.274l9.51-3.166c0.832-0.006,1.76-0.693,2.07-1.531l1.959-27.938
	c0.309-0.835-0.117-1.509-0.953-1.502l-5.877-3.046c0,0-6.22,0.418-12.434,0.798c-3.545-2.048-13.184-7.078-22.149-6.822
	c-3.52,0.093-7.285,0.59-10.973,1.29c-1.405-3.069-2.921-5.592-3.523-5.436c-1.468,0.378-0.694,4.768-2.524,5.153
	c-1.83,0.382-14.337,3.395-17.177,4.15c-3.979,1.062,1.064,12.858,3.503,11.859c2.436-1,14.502-5.26,16.57-5.963
	c2.072-0.701,3.191,1.271,5.551,0.518c0.647-0.207,0.602-1.52,0.165-3.292c2.938-0.521,5.872-0.879,8.602-0.95
	c3.068-0.075,6.356,0.691,9.339,1.726c0.309,2.027,3.003,5.604,1.67,9.208l-1.402,3.796c-4.158,1.22-9.039,3.359-8,6.535
	c0,0,1.492,3.207,3.442,6.938h-0.003c-24.572,9.036-28.473,11.4-40.537,16.177c-5.967,2.366-8.428,5.951-9.358,9.072
	c-17.944-6.445-56.287-19.388-66.021-16.049c-9.209-8.608-52.541-0.847-70.491,0.612c-10.198,0.828-5.858,4.674-0.442,7.752
	c-6.92,0.786-14.09,1.792-21.466,3.062c-8.857,1.524-12.032,11.077-7,10.801c37.362-2.059,26.659,0.976,61.134,0.675
	c5.407-0.044,14.268,4.21,22.588,9.053c-0.627-0.081-1.244-0.172-1.871-0.253c-1.569-0.195-3.149-0.397-4.735-0.6
	c-1.589-0.181-3.183-0.362-4.771-0.541c-3.185-0.383-6.371-0.675-9.507-1c-3.135-0.316-6.221-0.566-9.205-0.841
	c-2.988-0.237-5.877-0.464-8.616-0.68c-0.685-0.052-1.358-0.102-2.024-0.151c-0.662-0.068-1.326-0.046-2,0.142
	c-1.339,0.351-2.709,1.357-3.984,1.987c-0.642,0.341-1.258,0.58-1.849,0.721c-0.592,0.145-1.159,0.163-1.712,0.232
	c-1.113,0.115-2.16,0.19-3.142,0.234c-1.966,0.087-3.666,0.05-5.057-0.048c-2.791-0.202-4.342-0.673-4.342-0.673l-0.049,0.473
	c0,0-0.004-0.002-0.006,0l-0.623,5.836l-0.676,6.305c0,0,1.609-0.133,4.354,0.277c1.374,0.201,3.037,0.534,4.921,1.056
	c0.945,0.259,1.945,0.56,2.999,0.923c0.523,0.189,1.066,0.336,1.609,0.607c0.543,0.269,1.09,0.641,1.631,1.119
	c1.095,0.896,2.193,2.188,3.408,2.83c0.607,0.339,1.244,0.514,1.9,0.598c0.656,0.104,1.316,0.204,1.989,0.312
	c2.692,0.421,5.532,0.866,8.466,1.326c5.872,0.908,12.135,1.85,18.385,2.756c4.726,0.671,9.449,1.345,14.006,1.989
	c3.358,3.553,6.096,6.411,6.867,7.111c2.402,2.18,17.414,1.105,17.414,1.105s-9.315,6.455-9.812,8.548
	c-0.16,0.665,1.716,3.643,4.347,7.395l-5.312,1.695c0.441-0.517,0.559-1.267,0.23-1.913c-0.541-1.061-1.13-2.115-1.75-3.129
	c-0.47-0.77-1.434-1.046-2.232-0.671c0.658-0.587,0.777-1.587,0.254-2.315c-0.697-0.964-1.437-1.914-2.207-2.829
	c-0.584-0.691-1.586-0.815-2.316-0.317c0.568-0.683,0.535-1.692-0.098-2.337c-0.832-0.848-1.713-1.677-2.607-2.457
	c-0.679-0.595-1.688-0.567-2.336,0.036c0.455-0.761,0.271-1.752-0.452-2.297c-0.959-0.709-1.95-1.398-2.955-2.035
	c-0.761-0.483-1.761-0.303-2.306,0.397c0.336-0.822,0.004-1.776-0.793-2.202c-1.051-0.562-2.14-1.088-3.236-1.564
	c-0.83-0.361-1.786-0.026-2.218,0.746c0.21-0.86-0.267-1.759-1.123-2.057c-1.126-0.393-2.282-0.742-3.433-1.044
	c-0.873-0.232-1.762,0.239-2.075,1.067c0.067-0.88-0.536-1.686-1.427-1.85c-1.171-0.217-2.363-0.383-3.549-0.508
	c-0.898-0.098-1.703,0.509-1.889,1.37c-0.062-0.88-0.787-1.581-1.688-1.606c-1.189-0.034-2.398-0.023-3.585,0.033
	c-0.899,0.044-1.611,0.763-1.661,1.641c-0.197-0.856-1.016-1.445-1.908-1.335c-1.185,0.146-2.375,0.341-3.545,0.578
	c-0.881,0.18-1.471,0.998-1.39,1.876c-0.326-0.818-1.226-1.275-2.094-1.027c-1.151,0.326-2.298,0.701-3.411,1.114
	c-0.842,0.313-1.3,1.204-1.087,2.055c-0.456-0.755-1.407-1.06-2.225-0.684c-1.082,0.5-2.157,1.044-3.194,1.622
	c-0.787,0.439-1.104,1.393-0.756,2.205c-0.562-0.676-1.559-0.838-2.308-0.342c-0.995,0.658-1.974,1.36-2.912,2.09
	c-0.712,0.555-0.878,1.549-0.409,2.301c-0.659-0.59-1.668-0.598-2.338,0.011c-0.882,0.801-1.742,1.645-2.562,2.509
	c-0.618,0.653-0.63,1.666-0.052,2.337c-0.74-0.485-1.738-0.339-2.308,0.362c-0.751,0.924-1.476,1.889-2.153,2.87
	c-0.516,0.741-0.37,1.746,0.303,2.318c-0.807-0.369-1.775-0.073-2.226,0.707c-0.603,1.028-1.171,2.095-1.692,3.166
	c-0.396,0.817-0.099,1.784,0.655,2.249c-0.848-0.241-1.766,0.2-2.096,1.04c-0.438,1.112-0.834,2.251-1.184,3.391
	c-0.262,0.864,0.174,1.775,0.986,2.116c-0.879-0.104-1.709,0.472-1.903,1.353c-0.261,1.164-0.479,2.35-0.65,3.528
	c-0.128,0.893,0.444,1.724,1.302,1.939c-0.885,0.032-1.617,0.728-1.677,1.627c-0.079,1.185-0.112,2.391-0.102,3.569v0.215
	c0.015,0.898,0.707,1.631,1.586,1.706c-0.867,0.17-1.483,0.972-1.401,1.867c0.103,1.188,0.253,2.386,0.45,3.558
	c0.15,0.89,0.957,1.511,1.827,1.457c-0.836,0.298-1.318,1.181-1.104,2.056c0.287,1.152,0.621,2.316,0.994,3.448
	c0.282,0.855,1.162,1.349,2.024,1.157c-0.774,0.424-1.12,1.373-0.771,2.204c0.459,1.099,0.969,2.192,1.511,3.252
	c0.406,0.802,1.35,1.15,2.172,0.834c-0.694,0.537-0.89,1.524-0.419,2.291c0.624,1.014,1.291,2.017,1.989,2.985
	c0.529,0.727,1.521,0.932,2.282,0.488c-0.612,0.638-0.656,1.646-0.07,2.334c0.766,0.908,1.581,1.801,2.418,2.645
	c0.631,0.642,1.641,0.691,2.33,0.139c-0.51,0.721-0.399,1.727,0.283,2.318c0.897,0.785,1.838,1.54,2.792,2.251
	c0.726,0.541,1.731,0.433,2.328-0.223c-0.394,0.792-0.134,1.773,0.627,2.253c1.013,0.639,2.059,1.243,3.108,1.801
	c0.799,0.422,1.782,0.164,2.27-0.58c-0.272,0.846,0.133,1.775,0.965,2.137c1.094,0.475,2.221,0.914,3.348,1.303
	c0.855,0.293,1.776-0.11,2.148-0.91c-0.133,0.872,0.411,1.723,1.285,1.948c1.148,0.304,2.328,0.559,3.502,0.774
	c0.883,0.164,1.74-0.38,1.984-1.228c0.002,0.883,0.674,1.637,1.565,1.731c1.184,0.119,2.388,0.195,3.577,0.228
	c0.02-0.002,0.041-0.002,0.062,0c0.875-0.01,1.604-0.666,1.715-1.52c0.133,0.874,0.908,1.506,1.807,1.477
	c1.19-0.06,2.393-0.163,3.574-0.312c0.895-0.112,1.546-0.885,1.527-1.764c0.264,0.839,1.128,1.363,2.01,1.178
	c1.168-0.24,2.341-0.529,3.486-0.855c0.867-0.25,1.391-1.11,1.234-1.981c0.391,0.794,1.326,1.175,2.175,0.86
	c1.112-0.411,2.226-0.881,3.305-1.377c0.815-0.379,1.204-1.309,0.925-2.138c0.509,0.716,1.485,0.945,2.271,0.507
	c1.036-0.579,2.068-1.209,3.055-1.866c0.752-0.503,0.99-1.479,0.58-2.265c0.611,0.635,1.619,0.719,2.33,0.162
	c0.938-0.733,1.857-1.511,2.74-2.311c0.668-0.608,0.752-1.614,0.228-2.322c0.701,0.533,1.705,0.464,2.325-0.196
	c0.813-0.861,1.605-1.77,2.359-2.704c0.57-0.7,0.501-1.708-0.13-2.333c0.777,0.43,1.759,0.204,2.273-0.538
	c0.675-0.977,1.32-1.997,1.922-3.033c0.453-0.779,0.232-1.768-0.486-2.285c0.832,0.302,1.775-0.068,2.17-0.885
	c0.516-1.073,1.001-2.186,1.434-3.289c0.331-0.847-0.043-1.797-0.838-2.194c0.873,0.18,1.75-0.331,2.016-1.202
	c0.344-1.141,0.65-2.306,0.909-3.47c0.196-0.878-0.313-1.752-1.147-2.029c0.89,0.035,1.66-0.607,1.791-1.501
	c0.164-1.175,0.289-2.375,0.367-3.562c0.057-0.901-0.576-1.686-1.447-1.832c0.875-0.102,1.549-0.851,1.541-1.752
	c-0.01-0.844-0.049-1.694-0.102-2.539l11.808-2.249c1.843,2.393,3.081,3.968,3.081,3.968l44-0.384l27.352-22.455
	c13.145,2.179,25.264,3.491,30.611,3.444c1.619-0.012,3.199-0.611,4.736-1.648c0.998-6.459,2.76-12.973,6.176-18.576
	c1.814-2.979,5.394-7.504,9.393-9.15c0.486-1.535,0.93-3.035,1.332-4.487c0.138-0.108,0.275-0.219,0.414-0.33
	c0.582-0.4,1.17-0.806,1.76-1.215c0.519-0.347,1.027-0.725,1.562-1.059l1.94,4.317c-0.529,1.599-0.496,3.384,0.246,5.036
	l2.959,6.601c-0.193,0.046-0.385,0.121-0.561,0.24c-0.99,0.655-1.973,1.36-2.912,2.09c-0.713,0.553-0.877,1.55-0.408,2.298
	c-0.656-0.589-1.666-0.597-2.336,0.01c-0.882,0.802-1.743,1.65-2.56,2.513c-0.62,0.654-0.633,1.663-0.057,2.334
	c-0.739-0.483-1.739-0.34-2.308,0.361c-0.752,0.926-1.476,1.893-2.151,2.871c-0.513,0.745-0.372,1.746,0.302,2.319
	c-0.805-0.368-1.771-0.072-2.227,0.706c-0.602,1.03-1.168,2.096-1.688,3.166c-0.398,0.814-0.102,1.788,0.654,2.251
	c-0.854-0.245-1.768,0.195-2.098,1.039c-0.438,1.115-0.837,2.251-1.184,3.388c-0.264,0.863,0.174,1.775,0.989,2.119
	c-0.884-0.102-1.712,0.471-1.909,1.357c-0.262,1.161-0.479,2.346-0.648,3.524c-0.129,0.888,0.443,1.725,1.298,1.939
	c-0.88,0.031-1.613,0.727-1.673,1.626c-0.08,1.188-0.113,2.393-0.104,3.582l0.001,0.203c0.011,0.897,0.707,1.628,1.585,1.709
	c-0.868,0.167-1.482,0.966-1.402,1.866c0.104,1.187,0.258,2.385,0.453,3.557c0.145,0.89,0.939,1.506,1.824,1.459
	c-0.83,0.295-1.316,1.178-1.104,2.055c0.286,1.15,0.619,2.314,0.998,3.445c0.279,0.857,1.158,1.352,2.024,1.159
	c-0.775,0.422-1.123,1.372-0.774,2.206c0.463,1.096,0.969,2.191,1.51,3.253c0.411,0.796,1.354,1.148,2.177,0.831
	c-0.698,0.536-0.895,1.523-0.421,2.29c0.618,1.014,1.289,2.021,1.988,2.986c0.527,0.727,1.518,0.927,2.282,0.488
	c-0.612,0.638-0.655,1.645-0.072,2.334c0.768,0.907,1.579,1.799,2.418,2.646c0.633,0.642,1.643,0.69,2.334,0.137
	c-0.512,0.719-0.401,1.727,0.282,2.319c0.897,0.783,1.834,1.538,2.793,2.248c0.725,0.543,1.733,0.434,2.326-0.221
	c-0.395,0.792-0.135,1.772,0.63,2.256c1.011,0.635,2.053,1.242,3.106,1.795c0.799,0.427,1.778,0.165,2.268-0.574
	c-0.273,0.844,0.138,1.772,0.967,2.134c1.092,0.477,2.221,0.915,3.345,1.302c0.855,0.298,1.778-0.108,2.151-0.911
	c-0.137,0.872,0.408,1.724,1.282,1.949c1.151,0.305,2.329,0.56,3.502,0.774c0.885,0.165,1.741-0.381,1.987-1.229
	c0,0.883,0.67,1.637,1.564,1.728c1.188,0.121,2.388,0.202,3.576,0.231c0.024,0.001,0.045,0,0.062-0.002
	c0.877-0.008,1.605-0.661,1.715-1.517c0.133,0.874,0.916,1.505,1.81,1.474c1.19-0.055,2.388-0.162,3.57-0.312
	c0.895-0.111,1.545-0.884,1.524-1.765c0.267,0.842,1.128,1.363,2.015,1.184c1.168-0.241,2.34-0.529,3.484-0.859
	c0.863-0.243,1.392-1.111,1.238-1.978c0.389,0.792,1.324,1.175,2.17,0.858c1.115-0.413,2.228-0.879,3.307-1.378
	c0.817-0.381,1.205-1.309,0.922-2.142c0.508,0.718,1.486,0.948,2.273,0.508c1.037-0.581,2.066-1.207,3.061-1.865
	c0.746-0.499,0.984-1.479,0.58-2.257c0.609,0.63,1.614,0.709,2.322,0.156c0.94-0.729,1.857-1.512,2.74-2.312
	c0.666-0.61,0.756-1.613,0.229-2.325c0.701,0.536,1.713,0.465,2.328-0.19c0.812-0.862,1.607-1.772,2.357-2.705
	c0.566-0.699,0.501-1.708-0.125-2.335c0.772,0.429,1.759,0.204,2.268-0.537c0.676-0.978,1.324-2.001,1.923-3.031
	c0.456-0.782,0.233-1.774-0.485-2.292C328.52,250.269,329.463,249.894,329.854,249.082z M68.378,243.642
	c-7.164,0.064-13.045-5.714-13.104-12.877c-0.06-7.162,5.716-13.042,12.88-13.103c3.695-0.032,7.044,1.5,9.434,3.969l-4.032,1.289
	c-1.529-1.05-3.377-1.661-5.371-1.645c-5.178,0.047-9.337,4.28-9.295,9.455c0.046,5.18,4.28,9.343,9.46,9.297
	c3.605-0.031,6.715-2.101,8.256-5.103l4.168-0.792C79.254,239.566,74.294,243.592,68.378,243.642z M78.358,221.385
	c-2.535-2.765-6.179-4.495-10.213-4.459c-7.564,0.067-13.672,6.278-13.607,13.847c0.066,7.565,6.278,13.669,13.844,13.601
	c6.379-0.053,11.699-4.479,13.183-10.394l17.496-3.33c0.002,16.859-13.636,30.655-30.528,30.801
	c-16.984,0.147-30.918-13.551-31.065-30.528c-0.149-16.987,13.548-30.923,30.53-31.068c11.764-0.105,22.061,6.439,27.33,16.111
	L78.358,221.385z M276.799,221.601l1.918,4.279c-0.297,0.931-0.463,1.924-0.455,2.951c0.045,5.181,4.278,9.337,9.457,9.293
	c5.178-0.046,9.342-4.279,9.295-9.452c-0.033-3.799-2.32-7.041-5.58-8.487l-1.914-4.276c6.225,0.913,11.056,6.243,11.11,12.729
	c0.061,7.165-5.714,13.04-12.878,13.104c-7.164,0.061-13.042-5.715-13.103-12.88C274.626,226.183,275.419,223.684,276.799,221.601z
	 M276.453,220.832c-1.613,2.272-2.564,5.044-2.539,8.038c0.067,7.569,6.276,13.671,13.847,13.605
	c7.566-0.066,13.668-6.273,13.602-13.842c-0.059-7.015-5.399-12.759-12.199-13.514l-7.438-16.591
	c1.831-0.355,3.714-0.561,5.647-0.578c16.98-0.147,30.92,13.55,31.062,30.536c0.15,16.979-13.547,30.916-30.531,31.064
	c-16.982,0.146-30.92-13.553-31.066-30.531c-0.086-10.087,4.71-19.1,12.176-24.785L276.453,220.832z"/>
<path class="st0" d="M92.497,126.118c0.268,2.944-1.901,5.546-4.847,5.812l-74.988,6.83c-2.938,0.268-5.543-1.899-5.81-4.844
	l-6.83-74.99c-0.266-2.942,1.9-5.544,4.843-5.811l74.988-6.829c2.942-0.269,5.548,1.899,5.815,4.841L92.497,126.118z"/>
<path class="st0" d="M201.421,86.923c-0.355-1.007-0.924-2.073-1.867-2.42c-0.982-0.36-1.524,0.523-1.834,1.411
	c-1.096-1.164-2.371-2.012-3.729-1.892c-0.898-0.086-1.532,0.357-2.439,0.784c-1.02,0.481-2.349-0.117-3.345-0.406
	c-0.844-0.245-1.735-0.255-2.606-0.195c-2.396,0.161-3.688,1.881-4.224,3.978c-3.325-1.44-6.966-4.806-10.271-3.198
	c-0.867-0.327-1.781-0.508-2.575-0.994c-0.038-0.223-0.077-0.448-0.111-0.678c0,0,0.005,0.002,0.009,0
	c0.262-0.078-0.344-2.137-0.546-2.865l0.424-2.218c-0.69-2.449-0.616-5.376-0.662-7.671c-0.063-3.09-0.124-6.159,0.213-9.229
	c0.003-0.025,0.017-0.045,0.02-0.072c-0.142-0.215-0.29-0.43-0.424-0.634c-0.786-1.21-1.895-2.455-2.406-3.797
	c-0.189-0.491-0.219-1.159-0.264-1.68c-0.02-0.242-0.412-0.772-0.51-1.021c-0.301-0.775-0.209-1.524,0.129-2.203
	c0.026-0.346,0.051-0.696,0.043-1.043c0.207-0.356,0.384-0.722,0.546-1.086c0.618,0.344,1.347,0.562,1.958,0.77
	c0.514,0.176,1.036,0.325,1.558,0.467c0.159,0.292,0.282,0.601,0.417,0.903c1.254,0.064,2.518,0.267,3.768,0.324
	c0.296-0.031,0.591-0.062,0.888-0.11c-0.011-0.08-0.029-0.16-0.039-0.24c-0.011-0.109-0.018-0.235-0.02-0.361
	c0.027-0.007,0.056-0.005,0.082-0.013c0.883-0.205,1.341-1.154,1.121-1.914c0.623-0.51,1.223-1.838,2.004-1.763
	c0.535,0.049,1.039-0.198,1.143-0.738c0.044-0.217,0.087-0.436,0.127-0.655l0.199,0.01c0.411,0.009,0.855-0.38,0.893-0.761
	c0.084-0.965,0.311-1.807,0.666-2.669c0.582,0.134,1.223,0.169,1.803,0.165c0.348-0.544,0.723-1.064,1.131-1.555
	c-0.26-0.986-0.43-2-0.316-2.979c-0.076,0.653-0.4-1.227-0.422-1.331c-0.087-0.434-0.131-0.84-0.145-1.277
	c-0.029-0.836,0.248-1.576,0.783-2.126c-0.02-0.084-0.037-0.161-0.055-0.241c0.093-0.156,0.188-0.307,0.26-0.439
	c0.506-0.918,0.419-2.115,0.506-3.121c0.064-0.725,0.252-1.408,0.365-2.086c0.715-0.644,1.262-1.417,1.58-2.367
	c0.023-0.071,0.023-0.138,0.014-0.199c0.52-0.697,2.127-0.849,0.593-9.897c-1.601-9.42-9.062-13.212-15.989-15.276
	c-1.84-0.2-3.688-0.416-5.515-0.258c-3.868,0.336-7.755,0.834-11.062,3.055c-3.278,2.2-6.555,5.209-8.363,8.776
	c-2.02,3.991-1.57,8.705-3.68,12.537c-0.117,0.207-0.256,0.383-0.417,0.544c0.229,0.238,0.499,0.404,0.843,0.445
	c-0.02,0.152-0.049,0.307-0.064,0.454c-0.41,0.337-0.81,0.687-1.195,1.047c-0.041-0.014-0.074-0.032-0.115-0.044
	c-1.668-0.478-2.821,0.783-3.217,2.177c-0.064-0.038-0.117-0.082-0.18-0.12c-1.186-0.7-3.193-0.748-4.533-0.836
	c-2.727-0.178-5.068,0.614-7.111,2.182c0.01,0.654,0.131,1.285,0.611,1.659c0.922,0.713,2.051,0.497,3.051,1.018
	c1.699,0.879,2.552,2.625,2.723,4.492c0.043,0.528-0.017,1.04-0.171,1.519c0.827,1.387-0.122,3.17-1.295,4.244
	c-2.562,2.332-4.425,4.973-6.384,7.822c-1.707,2.49-3.552,4.782-6.091,6.261c-1.434,2.231-3.634,4.235-5.129,5.445
	c-0.069,0.057-0.138,0.105-0.2,0.159c-1.17,1.415-2.426,2.765-3.855,3.965c-0.889,0.754-1.879,1.375-2.939,1.807
	c-0.875,2.966-2.014,5.852-3.891,8.33c-2.354,3.103-8.332,9.373-13.525,9.988c-0.233,0.136-0.465,0.271-0.707,0.403
	c-0.068,0.138-0.135,0.274-0.197,0.411c0.525,2.569,2.002,4.862,3.699,6.95c1.098,1.355,2.385,2.585,3.689,3.758
	c0.777,0.698,1.609,1.343,2.448,1.972c0.934,0.703,0.585,0.708,0.104,1.683c-1.308,2.645-2.119,5.962-1.705,8.989
	c-0.206,0.285-0.271,0.666-0.033,1.053c0.176,0.28,0.338,0.572,0.49,0.871c0.165,0.477,0.367,0.937,0.609,1.379
	c0.773,1.957,1.267,4.1,2.01,5.98c1.279,3.211,3.258,5.905,5.643,8.474c5.326,5.741,12.538,9.054,19.52,12.523
	c0.161,0.075,0.322,0.152,0.484,0.232c2.408,0.761,4.85,1.37,7.311,1.684c3.709,0.469,7.456,0.446,11.168,0.877
	c0.766,0.091,1.691,0.228,2.523,0.533c0.739-0.023,1.475,0.139,1.971,0.573c0.232,0.201,0.359,0.437,0.424,0.689
	c0.031,0.033,0.071,0.059,0.104,0.092c0.176,0.194,0.307,0.494,0.15,0.751c-0.076,0.12-0.143,0.258-0.207,0.4
	c0.342,0.982,0.155,1.742-0.349,2.325c-0.054,0.987-0.38,2.005-0.796,3.03c0.051,0.38,0.11,0.77,0.164,1.205
	c0.208,1.652-0.355,4.185-1.617,5.762c-0.038,1.184-0.122,2.371-0.287,3.595c0.013,0.189,0.028,0.379,0.039,0.568
	c-0.48,2.493-0.663,5.612-0.694,7.548c-0.095-0.104-0.272-0.078-0.339,0.046l-0.023,0.034c-0.537-0.154-0.987-0.096-1.367,0.107
	c-0.146,0.414-0.257,0.849-0.229,1.349c0.096,1.581,0.128,3.161,0.047,4.744c-0.19,3.71-0.432,7.366-1.367,10.976
	c-0.497,1.926-1.598,3.581-2.395,5.38c-0.724,1.63-0.867,3.068-0.787,4.642c1.562,3.378,7.361,4.956,10.441,5.799
	c7.637,2.084,15.611,2.889,23.462,3.642c0.302,0.031,0.602-0.124,0.657-0.442c0.414-2.438,0.428-4.854-0.835-7.044
	c-1.183-2.05-3.505-3.261-5.542-4.267c-2.855-1.414-6.441-2.283-8.826-4.439c-2.182-1.973,0.658-4.69-0.473-6.57
	c0.018-0.05,0.042-0.102,0.06-0.153c0.37-0.598,0.812-1.164,1.213-1.727c1.051-1.473,2.003-3.103,2.868-4.689
	c0.753-1.384,0.755-2.809,0.575-4.258c0.024-0.05,0.052-0.104,0.077-0.157c1.686,0.529,2.732-3.416,2.957-4.439
	c0.166-0.748,0.25-1.513,0.32-2.284c1.253-2.582,2.479-5.183,3.6-7.835c0.658-1.558,1.451-3.204,2.226-4.9
	c1.048-1.709,2.041-3.448,2.863-5.266c0.919-2.023,1.13-4.29,0.586-6.435c-0.075-0.311-0.201-0.608-0.342-0.903
	c-0.019-0.173-0.03-0.349-0.054-0.523c0.624-4.675,0.41-9.01-3.293-12.788c-1.781-1.814-4.131-3.777-5.553-6.091
	c-3.616-2.045-7.507-3.651-11.227-5.542c-0.844-0.667-1.691-1.324-2.557-1.954c-2.867-2.092-5.873-3.796-8.925-5.61
	c-0.179-0.103-0.349-0.212-0.528-0.321c-0.858-0.71-1.661-1.458-2.295-2.231c-0.443-0.135-0.885-0.286-1.318-0.447
	c-0.064-0.066-0.137-0.123-0.199-0.193c-0.549-0.591-0.223-1.712,0.104-2.693c1.793-1.118,4.436-1.936,5.423-2.956
	c1.264-1.313,2.007-3.116,2.519-5.044c-0.186-0.76-0.091-1.483,0.197-2.49c0.411-1.416,2.842-1.958,3.331-0.208
	c0.466,1.658,0.878,2.914,2.067,4.226c0.84,0.93,1.198,1.793,1.4,2.885c0.034,0.027,0.064,0.062,0.098,0.088
	c-0.148,1.163,0.16,2.462,0.861,3.177c0.551,0.56,1.231,0.801,1.957,0.906c1.315,1.47,3.057,3.063,3.574,3.329
	c1.455,0.736,4.232,1.97,5.694,1.359c0.253-0.102,7.047,0.226,9.344-0.114c3.731-0.55,7.214-2.115,10.449-3.991
	c1.774-1.032,3.505-2.138,5.235-3.232c1.822-1.146,4.15-3.136,6.324-3.358c0.232-0.023,0.49-0.206,0.509-0.455
	c0.05-0.622,0.259-1.198,0.38-1.8c3.205,0.445,8.573,0.367,8.452-3.795C205.458,90.402,203.573,85.155,201.421,86.923z"/>
</svg>