<?xml version="1.0" encoding="utf-8"?>
<!-- Designed by Vexels.com - 2016 All Rights Reserved - https://vexels.com/terms-and-conditions/  -->

<svg version="1.0" id="Capa_1" xmlns="http://www.w3.org/2000/svg" xmlns:xlink="http://www.w3.org/1999/xlink" x="0px" y="0px"
	 width="1200px" height="1200px" viewBox="0 0 1200 1200" enable-background="new 0 0 1200 1200" xml:space="preserve">
<g>
	<path fill="#55398E" d="M575.63,1117.205c-33.587,11.326-68.689-2.815-78.425-31.6l-273.43-809.335
		c-9.748-28.798,9.592-61.341,43.191-72.68L624.37,82.805c33.587-11.35,68.683,2.803,78.418,31.627l273.448,809.283
		c9.717,28.798-9.602,61.38-43.177,72.717L575.63,1117.205z"/>
	<path fill="#4ACACB" d="M683.657,224.721c-6.882-20.326-28.93-31.236-49.237-24.373l-83.873,28.358
		c-20.332,6.863-31.237,28.885-24.38,49.211c6.87,20.339,28.905,31.25,49.25,24.374l83.86-28.32
		C679.596,267.095,690.527,245.06,683.657,224.721z M608.143,282.581l-19.622-58.073l13.977-4.701l19.597,58.06L608.143,282.581z"/>
	<path fill="#4ACACB" d="M463.317,299.161c-6.876-20.326-28.905-31.224-49.23-24.373l-83.88,28.345
		c-20.326,6.863-31.224,28.898-24.355,49.237c6.85,20.326,28.905,31.224,49.23,24.361l83.88-28.346
		C459.275,341.547,470.186,319.499,463.317,299.161z M387.822,357.02l-19.628-58.086l13.965-4.701l19.61,58.049L387.822,357.02z"/>
	<path fill="#4ACACB" d="M737.891,385.303c-6.87-20.339-28.9-31.237-49.225-24.374l-83.873,28.346
		c-20.326,6.85-31.236,28.898-24.366,49.237c6.857,20.313,28.898,31.236,49.242,24.361l83.855-28.32
		C733.862,427.677,744.772,405.629,737.891,385.303z M662.407,443.163l-19.641-58.073l13.972-4.714l19.602,58.06L662.407,443.163z"
		/>
	<path fill="#4ACACB" d="M517.581,459.743c-6.87-20.339-28.929-31.237-49.248-24.374l-83.875,28.346
		c-20.326,6.85-31.242,28.898-24.366,49.224c6.881,20.326,28.892,31.25,49.237,24.374l83.873-28.346
		C513.521,502.117,524.438,480.069,517.581,459.743z M442.067,517.603l-19.615-58.073l13.959-4.714l19.622,58.06L442.067,517.603z"
		/>
	<path fill="#4ACACB" d="M790.64,541.41c-6.857-20.326-28.885-31.224-49.23-24.36l-83.88,28.345
		c-20.306,6.863-31.237,28.898-24.367,49.237c6.87,20.3,28.924,31.237,49.237,24.361l83.867-28.346
		C786.612,583.81,797.51,561.749,790.64,541.41z M715.126,599.283l-19.615-58.06l13.971-4.726l19.622,58.06L715.126,599.283z"/>
	<path fill="#4ACACB" d="M570.319,615.863c-6.87-20.339-28.918-31.249-49.25-24.385l-83.867,28.333
		c-20.313,6.888-31.231,28.936-24.342,49.248c6.837,20.313,28.885,31.25,49.218,24.361l83.862-28.333
		C566.271,658.223,577.195,636.188,570.319,615.863z M494.818,673.711l-19.622-58.062l13.965-4.701l19.61,58.048L494.818,673.711z"
		/>
	<path fill="#4ACACB" d="M843.385,697.543c-6.883-20.339-28.918-31.249-49.232-24.361L710.28,701.49
		c-20.337,6.875-31.242,28.91-24.372,49.248c6.876,20.326,28.905,31.237,49.243,24.361l83.873-28.32
		C839.343,739.903,850.26,717.855,843.385,697.543z M767.882,755.391l-19.622-58.062l13.953-4.714l19.622,58.06L767.882,755.391z"/>
	<path fill="#4ACACB" d="M623.051,771.958c-6.85-20.326-28.918-31.224-49.219-24.361l-83.873,28.345
		c-20.326,6.863-31.236,28.911-24.379,49.225c6.85,20.326,28.911,31.249,49.243,24.385l83.88-28.346
		C619.022,814.356,629.92,792.295,623.051,771.958z M547.549,829.83l-19.591-58.062l13.934-4.738l19.628,58.073L547.549,829.83z"/>
	<path fill="#4ACACB" d="M896.134,853.649c-6.87-20.337-28.924-31.236-49.25-24.373l-83.854,28.32
		c-20.345,6.876-31.25,28.911-24.355,49.25c6.837,20.313,28.898,31.236,49.205,24.373l83.88-28.345
		C892.086,896.012,902.991,873.951,896.134,853.649z M820.626,911.51l-19.615-58.075l13.964-4.701l19.61,58.049L820.626,911.51z"/>
	<path fill="#4ACACB" d="M675.8,928.089c-6.87-20.337-28.892-31.236-49.237-24.36l-83.873,28.307
		c-20.326,6.888-31.231,28.924-24.372,49.25c6.875,20.326,28.923,31.236,49.23,24.373l83.891-28.333
		C671.771,970.463,682.657,948.415,675.8,928.089z M600.299,985.937l-19.628-58.062l13.971-4.701l19.61,58.049L600.299,985.937z"/>
	<g>
		<polygon fill="#FFFFFF" points="459.124,189.223 456.617,181.744 460.338,180.487 462.876,187.966 		"/>
		<path fill="#FFFFFF" d="M732.083,997.112l-5.053-14.971l3.739-1.27l5.047,14.958L732.083,997.112z M721.97,967.17l-5.059-14.958
			l3.739-1.27l5.047,14.971L721.97,967.17z M711.851,937.241l-5.041-14.945l3.733-1.27l5.047,14.971L711.851,937.241z
			 M701.739,907.312l-5.047-14.945l3.733-1.27l5.047,14.971L701.739,907.312z M691.645,877.407l-5.06-14.958l3.734-1.256
			l5.071,14.945L691.645,877.407z M681.532,847.479l-5.065-14.959l3.733-1.256l5.066,14.983L681.532,847.479z M671.42,817.561
			l-5.053-14.945l3.734-1.269l5.071,14.945L671.42,817.561z M661.326,787.657l-5.071-14.984l3.739-1.245l5.041,14.96
			L661.326,787.657z M651.214,757.728l-5.066-14.958l3.728-1.269l5.071,14.958L651.214,757.728z M641.088,727.799l-5.052-14.971
			l3.726-1.256l5.073,14.97L641.088,727.799z M630.989,697.882l-5.06-14.934l3.739-1.282l5.053,14.958L630.989,697.882z
			 M620.882,667.966l-5.047-14.971l3.721-1.245l5.06,14.945L620.882,667.966z M610.77,638.037l-5.053-14.971l3.721-1.245
			l5.065,14.958L610.77,638.037z M600.669,608.132l-5.071-14.983l3.739-1.245l5.06,14.958L600.669,608.132z M590.551,578.191
			l-5.041-14.947l3.726-1.269l5.06,14.971L590.551,578.191z M580.438,548.286l-5.047-14.971l3.734-1.269l5.053,14.971
			L580.438,548.286z M570.339,518.344l-5.066-14.958l3.752-1.245l5.034,14.947L570.339,518.344z M560.219,488.453l-5.047-14.984
			l3.728-1.269l5.071,14.983L560.219,488.453z M550.12,458.498l-5.047-14.945l3.726-1.258l5.053,14.958L550.12,458.498z
			 M540.013,428.582l-5.071-14.945l3.739-1.27l5.06,14.971L540.013,428.582z M529.894,398.653l-5.066-14.945l3.752-1.258
			l5.066,14.958L529.894,398.653z M519.794,368.749l-5.071-14.958l3.752-1.258l5.059,14.971L519.794,368.749z M509.694,338.831
			l-5.071-14.958l3.739-1.269l5.066,14.958L509.694,338.831z M499.569,308.903l-5.065-14.96l3.739-1.269l5.053,14.971
			L499.569,308.903z M489.45,278.986l-5.034-14.971l3.726-1.256l5.06,14.958L489.45,278.986z M479.343,249.069l-5.059-14.971
			l3.752-1.243l5.059,14.945L479.343,249.069z M469.244,219.153l-5.047-14.984l3.72-1.256l5.066,14.971L469.244,219.153z"/>
		<polygon fill="#FFFFFF" points="739.657,1019.512 737.13,1012.058 740.869,1010.776 743.39,1018.267 		"/>
	</g>
</g>
</svg>
